<?xml version="1.0" standalone="no"?>
<!DOCTYPE svg PUBLIC "-//W3C//DTD SVG 20010904//EN"
 "http://www.w3.org/TR/2001/REC-SVG-20010904/DTD/svg10.dtd">
<svg version="1.0" xmlns="http://www.w3.org/2000/svg"
 width="267.000000pt" height="267.000000pt" viewBox="0 0 267.000000 267.000000"
 preserveAspectRatio="xMidYMid meet">

<g transform="translate(0.000000,267.000000) scale(0.100000,-0.100000)"
fill="#000000" stroke="none">
<path d="M2249 2039 c-74 -56 -159 -123 -190 -150 -31 -27 -62 -49 -68 -49 -7
0 -9 -5 -5 -12 5 -8 2 -9 -9 -5 -9 3 -19 1 -23 -5 -5 -7 -2 -8 7 -3 12 8 12 6
0 -8 -7 -9 -17 -14 -22 -11 -13 8 -11 -10 4 -25 10 -11 9 -13 -3 -9 -8 3 -21
-2 -29 -10 -12 -12 -12 -15 0 -24 10 -7 6 -8 -13 -4 -16 4 -28 2 -28 -3 0 -6
-7 -8 -15 -5 -8 4 -15 1 -15 -5 0 -6 4 -11 8 -11 5 0 17 -7 28 -15 18 -14 17
-15 -10 -9 -21 5 -27 4 -22 -5 4 -6 13 -11 21 -11 7 0 16 -7 19 -16 4 -10 2
-13 -7 -7 -6 4 -23 8 -36 8 -23 1 -23 1 5 -22 31 -24 26 -30 -8 -12 -19 10
-20 9 -15 -10 4 -18 2 -21 -14 -16 -14 5 -17 3 -13 -9 5 -13 -1 -16 -26 -16
-18 0 -29 -4 -25 -10 4 -6 11 -8 16 -5 5 4 22 -4 37 -16 19 -16 21 -20 7 -14
-36 14 -72 13 -72 -2 0 -9 7 -13 19 -10 10 3 18 1 18 -3 0 -5 8 -11 18 -13 9
-3 1 -5 -18 -6 -40 -1 -68 -15 -52 -25 6 -3 17 -3 25 0 8 3 18 0 23 -7 5 -8 3
-10 -6 -4 -7 4 -16 2 -20 -5 -6 -9 -12 -9 -29 0 -20 10 -21 10 -9 -9 7 -12 18
-21 25 -21 6 0 15 -5 18 -10 4 -7 -3 -9 -22 -5 -15 3 -22 2 -15 -1 19 -9 14
-22 -10 -27 l-23 -4 23 -8 c12 -4 22 -11 22 -16 0 -13 -14 -11 -28 3 -8 8 -15
8 -26 -1 -14 -11 -14 -15 -1 -28 20 -19 19 -44 0 -37 -8 4 -15 10 -15 15 0 4
-7 6 -15 3 -14 -6 -13 -8 2 -19 23 -17 11 -30 -15 -16 -20 11 -20 10 -1 -29
10 -21 19 -46 19 -54 0 -8 4 -17 9 -20 5 -3 11 -15 14 -26 3 -11 1 -18 -3 -15
-5 3 -11 1 -14 -4 -4 -5 -23 -1 -45 10 -22 10 -46 16 -54 13 -8 -3 -25 5 -37
18 -21 22 -22 22 -12 2 12 -23 38 -37 52 -29 5 3 11 1 15 -5 3 -5 1 -10 -4
-10 -6 0 -11 -7 -11 -15 0 -14 -3 -14 -24 0 -13 8 -30 13 -39 9 -14 -5 -15
-10 -5 -27 20 -35 13 -57 -17 -57 -5 0 -3 5 5 10 13 9 13 10 0 11 -8 1 -21 0
-29 -1 -8 -1 -17 3 -20 8 -3 5 -14 1 -24 -9 -18 -17 -18 -17 17 -15 30 3 34 1
25 -10 -6 -8 -8 -14 -3 -15 5 0 -2 -4 -14 -10 -13 -5 -29 -6 -35 -2 -16 10
-67 12 -67 3 0 -11 30 -21 41 -15 11 7 73 -24 65 -33 -4 -3 -12 0 -18 6 -28
28 -134 3 -132 -30 1 -11 -4 -15 -15 -11 -11 4 -10 1 4 -10 11 -9 28 -17 37
-17 9 0 20 -4 23 -10 4 -6 -1 -7 -12 -4 -15 6 -15 4 2 -9 21 -16 27 -14 67 26
10 10 24 15 30 11 7 -4 8 -3 4 4 -4 7 -1 12 8 12 9 0 16 6 16 13 0 8 18 22 39
33 22 10 37 22 35 26 -3 5 0 8 5 8 6 0 20 8 31 17 11 10 24 18 28 18 4 0 21
12 37 28 16 15 35 27 41 27 14 0 40 -30 47 -55 3 -11 35 -92 72 -180 37 -88
77 -187 90 -220 13 -33 28 -73 34 -89 13 -31 9 -39 -173 -350 -42 -72 -74
-132 -71 -134 13 -14 406 239 515 332 79 67 160 171 191 246 21 51 24 73 27
284 3 188 1 227 -10 220 -7 -4 -55 -39 -107 -77 -52 -39 -97 -65 -102 -60 -11
11 -118 266 -132 315 -6 21 -9 39 -6 41 2 2 84 64 182 137 l177 132 0 259 c0
143 -1 259 -3 259 -2 0 -64 -46 -138 -101z m-554 -719 c3 -5 2 -10 -4 -10 -5
0 -13 5 -16 10 -3 6 -2 10 4 10 5 0 13 -4 16 -10z m22 -26 c-3 -3 -12 -4 -19
-1 -8 3 -5 6 6 6 11 1 17 -2 13 -5z m-47 -74 c0 -5 -2 -10 -4 -10 -3 0 -8 5
-11 10 -3 6 -1 10 4 10 6 0 11 -4 11 -10z m-162 -145 c-3 -3 -9 2 -12 12 -6
14 -5 15 5 6 7 -7 10 -15 7 -18z m83 -13 c-7 -2 -18 1 -23 6 -8 8 -4 9 13 5
13 -4 18 -8 10 -11z m-106 -72 c8 -13 -5 -13 -25 0 -13 8 -13 10 2 10 9 0 20
-4 23 -10z m-15 -24 c0 -3 -4 -8 -10 -11 -5 -3 -10 -1 -10 4 0 6 5 11 10 11 6
0 10 -2 10 -4z m-84 -41 c1 -8 -4 -11 -12 -8 -15 6 -18 16 -7 26 8 9 16 1 19
-18z m-61 -5 c10 -11 15 -20 11 -20 -14 0 -46 21 -46 30 0 16 16 11 35 -10z"/>
<path d="M1450 1065 c7 -8 17 -15 22 -15 6 0 5 7 -2 15 -7 8 -17 15 -22 15 -6
0 -5 -7 2 -15z"/>
<path d="M1270 1046 c0 -2 7 -7 16 -10 8 -3 12 -2 9 4 -6 10 -25 14 -25 6z"/>
<path d="M1325 1020 c3 -5 12 -10 20 -10 8 0 17 5 20 10 4 6 -5 10 -20 10 -15
0 -24 -4 -20 -10z"/>
<path d="M1280 982 c0 -6 9 -12 20 -15 11 -3 20 -3 20 -1 0 2 -9 8 -20 14 -11
6 -20 7 -20 2z"/>
<path d="M813 363 c-7 -2 -9 -11 -6 -19 3 -8 0 -14 -5 -14 -14 0 -11 -42 3
-53 5 -5 -7 -6 -29 -3 -34 5 -36 4 -21 -8 19 -14 29 -46 15 -46 -15 0 -21 18
-8 23 7 3 0 6 -17 6 l-30 0 25 -17 c13 -9 32 -24 41 -33 38 -38 205 -142 220
-137 8 3 -101 200 -127 229 -8 8 -14 21 -14 27 0 7 -8 12 -17 12 -14 0 -15 2
-5 9 11 6 11 10 0 18 -7 6 -18 8 -25 6z"/>
</g>
</svg>
